<mxfile host="app.diagrams.net" modified="2021-05-24T10:19:51.993Z" agent="5.0 (Windows NT 10.0; Win64; x64) AppleWebKit/537.36 (KHTML, like Gecko) Chrome/90.0.4430.212 Safari/537.36" etag="RBwUl-ROLsKmVddWtBUB" version="14.6.10" type="github">
  <diagram id="9PtsYyo4MoqWUSuVR4Cp" name="Page-1">
    <mxGraphModel dx="981" dy="548" grid="1" gridSize="10" guides="1" tooltips="1" connect="1" arrows="1" fold="1" page="1" pageScale="1" pageWidth="827" pageHeight="1169" math="0" shadow="0">
      <root>
        <mxCell id="0" />
        <mxCell id="1" parent="0" />
        <mxCell id="-Bwnl3m1J4DydUGmwCFT-1" value="" style="rounded=0;whiteSpace=wrap;html=1;" vertex="1" parent="1">
          <mxGeometry x="350" y="380" width="120" height="60" as="geometry" />
        </mxCell>
        <mxCell id="-Bwnl3m1J4DydUGmwCFT-2" value="" style="rounded=1;whiteSpace=wrap;html=1;" vertex="1" parent="1">
          <mxGeometry x="120" y="370" width="690" height="110" as="geometry" />
        </mxCell>
        <mxCell id="-Bwnl3m1J4DydUGmwCFT-7" value="&lt;b&gt;&lt;font style=&quot;font-size: 19px&quot;&gt;Test_overlay&lt;/font&gt;&lt;/b&gt;" style="text;html=1;strokeColor=none;fillColor=none;align=center;verticalAlign=middle;whiteSpace=wrap;rounded=0;" vertex="1" parent="1">
          <mxGeometry x="400" y="480" width="130" height="60" as="geometry" />
        </mxCell>
        <mxCell id="-Bwnl3m1J4DydUGmwCFT-8" value="" style="rounded=1;whiteSpace=wrap;html=1;fillColor=#dae8fc;strokeColor=#6c8ebf;" vertex="1" parent="1">
          <mxGeometry x="110" y="370" width="120" height="110" as="geometry" />
        </mxCell>
        <mxCell id="-Bwnl3m1J4DydUGmwCFT-9" value="" style="rounded=1;whiteSpace=wrap;html=1;fillColor=#dae8fc;strokeColor=#6c8ebf;" vertex="1" parent="1">
          <mxGeometry x="110" y="370" width="30" height="110" as="geometry" />
        </mxCell>
        <mxCell id="-Bwnl3m1J4DydUGmwCFT-10" value="" style="rounded=1;whiteSpace=wrap;html=1;fillColor=#dae8fc;strokeColor=#6c8ebf;" vertex="1" parent="1">
          <mxGeometry x="140" y="370" width="30" height="110" as="geometry" />
        </mxCell>
        <mxCell id="-Bwnl3m1J4DydUGmwCFT-11" value="" style="rounded=1;whiteSpace=wrap;html=1;fillColor=#dae8fc;strokeColor=#6c8ebf;" vertex="1" parent="1">
          <mxGeometry x="170" y="370" width="30" height="110" as="geometry" />
        </mxCell>
        <mxCell id="-Bwnl3m1J4DydUGmwCFT-14" value="C&lt;br&gt;L&lt;br&gt;U&lt;br&gt;T&lt;br&gt;0" style="text;html=1;strokeColor=none;fillColor=none;align=center;verticalAlign=middle;whiteSpace=wrap;rounded=0;" vertex="1" parent="1">
          <mxGeometry x="105" y="390" width="40" height="80" as="geometry" />
        </mxCell>
        <mxCell id="-Bwnl3m1J4DydUGmwCFT-15" value="C&lt;br&gt;L&lt;br&gt;U&lt;br&gt;T&lt;br&gt;1" style="text;html=1;strokeColor=none;fillColor=none;align=center;verticalAlign=middle;whiteSpace=wrap;rounded=0;" vertex="1" parent="1">
          <mxGeometry x="135" y="390" width="40" height="80" as="geometry" />
        </mxCell>
        <mxCell id="-Bwnl3m1J4DydUGmwCFT-16" value="&lt;b style=&quot;font-size: 14px&quot;&gt;.&lt;br&gt;.&lt;br&gt;.&lt;/b&gt;" style="text;html=1;strokeColor=none;fillColor=none;align=center;verticalAlign=middle;whiteSpace=wrap;rounded=0;" vertex="1" parent="1">
          <mxGeometry x="165" y="380" width="40" height="80" as="geometry" />
        </mxCell>
        <mxCell id="-Bwnl3m1J4DydUGmwCFT-17" value="C&lt;br&gt;L&lt;br&gt;U&lt;br&gt;T&lt;br&gt;15" style="text;html=1;strokeColor=none;fillColor=none;align=center;verticalAlign=middle;whiteSpace=wrap;rounded=0;" vertex="1" parent="1">
          <mxGeometry x="200" y="390" width="40" height="80" as="geometry" />
        </mxCell>
        <mxCell id="-Bwnl3m1J4DydUGmwCFT-21" value="" style="rounded=1;whiteSpace=wrap;html=1;fillColor=#ffe6cc;strokeColor=#d79b00;" vertex="1" parent="1">
          <mxGeometry x="230" y="370" width="150" height="110" as="geometry" />
        </mxCell>
        <mxCell id="-Bwnl3m1J4DydUGmwCFT-26" value="&lt;font style=&quot;font-size: 16px&quot;&gt;buf_num = 2&lt;/font&gt;" style="text;html=1;strokeColor=none;fillColor=none;align=center;verticalAlign=middle;whiteSpace=wrap;rounded=0;" vertex="1" parent="1">
          <mxGeometry x="240" y="470" width="130" height="60" as="geometry" />
        </mxCell>
        <mxCell id="-Bwnl3m1J4DydUGmwCFT-28" value="overlay_yuv&lt;br&gt;1" style="rounded=1;whiteSpace=wrap;html=1;fillColor=#fff2cc;strokeColor=#d6b656;" vertex="1" parent="1">
          <mxGeometry x="230" y="370" width="70" height="110" as="geometry" />
        </mxCell>
        <mxCell id="-Bwnl3m1J4DydUGmwCFT-30" value="overlay_yuv&lt;br&gt;2" style="rounded=1;whiteSpace=wrap;html=1;fillColor=#fff2cc;strokeColor=#d6b656;" vertex="1" parent="1">
          <mxGeometry x="300" y="370" width="80" height="110" as="geometry" />
        </mxCell>
        <mxCell id="-Bwnl3m1J4DydUGmwCFT-31" value="&lt;span style=&quot;font-size: 19px&quot;&gt;&lt;b&gt;&lt;font color=&quot;#b5739d&quot;&gt;Stream0&lt;/font&gt;&lt;/b&gt;&lt;/span&gt;" style="text;html=1;strokeColor=none;fillColor=none;align=center;verticalAlign=middle;whiteSpace=wrap;rounded=0;" vertex="1" parent="1">
          <mxGeometry x="240" y="430" width="130" height="60" as="geometry" />
        </mxCell>
        <mxCell id="-Bwnl3m1J4DydUGmwCFT-33" value="overlay_yuv&lt;br&gt;2" style="rounded=1;whiteSpace=wrap;html=1;fillColor=#fff2cc;strokeColor=#d6b656;" vertex="1" parent="1">
          <mxGeometry x="450" y="370" width="80" height="110" as="geometry" />
        </mxCell>
        <mxCell id="-Bwnl3m1J4DydUGmwCFT-35" value="overlay_yuv&lt;br&gt;1" style="rounded=1;whiteSpace=wrap;html=1;fillColor=#fff2cc;strokeColor=#d6b656;" vertex="1" parent="1">
          <mxGeometry x="380" y="370" width="70" height="110" as="geometry" />
        </mxCell>
        <mxCell id="-Bwnl3m1J4DydUGmwCFT-36" value="&lt;span style=&quot;font-size: 19px&quot;&gt;&lt;b&gt;&lt;font color=&quot;#b5739d&quot;&gt;Stream1&lt;/font&gt;&lt;/b&gt;&lt;/span&gt;" style="text;html=1;strokeColor=none;fillColor=none;align=center;verticalAlign=middle;whiteSpace=wrap;rounded=0;" vertex="1" parent="1">
          <mxGeometry x="380" y="430" width="130" height="60" as="geometry" />
        </mxCell>
        <mxCell id="-Bwnl3m1J4DydUGmwCFT-37" value="....." style="rounded=1;whiteSpace=wrap;html=1;fillColor=#fff2cc;strokeColor=#d6b656;" vertex="1" parent="1">
          <mxGeometry x="530" y="370" width="70" height="110" as="geometry" />
        </mxCell>
        <mxCell id="-Bwnl3m1J4DydUGmwCFT-38" value="......" style="rounded=1;whiteSpace=wrap;html=1;fillColor=#fff2cc;strokeColor=#d6b656;" vertex="1" parent="1">
          <mxGeometry x="600" y="370" width="70" height="110" as="geometry" />
        </mxCell>
        <mxCell id="-Bwnl3m1J4DydUGmwCFT-39" value="&lt;span style=&quot;font-size: 19px&quot;&gt;&lt;b&gt;&lt;font color=&quot;#b5739d&quot;&gt;Stream....&lt;/font&gt;&lt;/b&gt;&lt;/span&gt;" style="text;html=1;strokeColor=none;fillColor=none;align=center;verticalAlign=middle;whiteSpace=wrap;rounded=0;" vertex="1" parent="1">
          <mxGeometry x="530" y="430" width="130" height="60" as="geometry" />
        </mxCell>
        <mxCell id="-Bwnl3m1J4DydUGmwCFT-40" value="overlay_yuv&lt;br&gt;1" style="rounded=1;whiteSpace=wrap;html=1;fillColor=#fff2cc;strokeColor=#d6b656;" vertex="1" parent="1">
          <mxGeometry x="670" y="370" width="70" height="110" as="geometry" />
        </mxCell>
        <mxCell id="-Bwnl3m1J4DydUGmwCFT-41" value="overlay_yuv&lt;br&gt;1" style="rounded=1;whiteSpace=wrap;html=1;fillColor=#fff2cc;strokeColor=#d6b656;" vertex="1" parent="1">
          <mxGeometry x="740" y="370" width="70" height="110" as="geometry" />
        </mxCell>
        <mxCell id="-Bwnl3m1J4DydUGmwCFT-42" value="&lt;span style=&quot;font-size: 19px&quot;&gt;&lt;b&gt;&lt;font color=&quot;#b5739d&quot;&gt;Stream11&lt;/font&gt;&lt;/b&gt;&lt;/span&gt;" style="text;html=1;strokeColor=none;fillColor=none;align=center;verticalAlign=middle;whiteSpace=wrap;rounded=0;" vertex="1" parent="1">
          <mxGeometry x="670" y="430" width="130" height="60" as="geometry" />
        </mxCell>
      </root>
    </mxGraphModel>
  </diagram>
</mxfile>
